<svg width="40" height="32" viewBox="0 0 18 12" fill="none" xmlns="http://www.w3.org/2000/svg">
<path d="M6.61067 1.648L5.33867 1.612C4.56267 1.612 4.02667 1.696 3.73067 1.864C3.60267 1.936 3.46267 2.044 3.31067 2.188C3.16667 2.332 3.05467 2.508 2.97467 2.716C2.78267 3.212 2.68667 3.832 2.68667 4.576C2.43867 4.744 2.16267 4.96 1.85867 5.224C1.85867 3.68 2.36667 2.492 3.38267 1.66C3.97467 1.18 4.79467 0.939999 5.84267 0.939999C5.86667 0.939999 6.52667 0.975999 7.82267 1.048C7.59067 1.512 7.47467 2.8 7.47467 4.912C7.47467 6.736 7.51067 7.876 7.58267 8.332C7.66267 8.78 7.74267 9.06 7.82267 9.172C7.91067 9.284 8.05467 9.34 8.25467 9.34C8.45467 9.34 8.74267 9.228 9.11867 9.004L9.16667 9.1C8.73467 9.484 8.26667 9.828 7.76267 10.132C7.40267 10.132 7.15467 9.996 7.01867 9.724C6.93867 9.564 6.87467 9.412 6.82667 9.268C6.77867 9.124 6.73867 8.892 6.70667 8.572C6.67467 8.14 6.65067 7.516 6.63467 6.7H4.45067C4.39467 6.804 4.30667 6.984 4.18667 7.24C3.93067 7.744 3.73467 8.088 3.59867 8.272C2.71067 9.488 1.75867 10.096 0.742672 10.096H-0.0013282L0.562672 9.328C0.850672 9.4 1.15867 9.436 1.48667 9.436C1.82267 9.436 2.08267 9.36 2.26667 9.208C2.45867 9.056 2.69067 8.752 2.96267 8.296C3.23467 7.84 3.81467 6.768 4.70267 5.08C5.59067 3.392 6.22667 2.248 6.61067 1.648ZM6.62267 6.112C6.61467 5.816 6.61067 5.424 6.61067 4.936C6.61067 4.448 6.61467 3.956 6.62267 3.46C6.63067 2.956 6.63467 2.692 6.63467 2.668C6.39467 3.1 6.06667 3.716 5.65067 4.516C5.24267 5.316 4.96667 5.848 4.82267 6.112H6.62267ZM10.3889 2.38C10.7969 1.932 11.3329 1.584 11.9969 1.336C12.6689 1.08 13.4409 0.952 14.3129 0.952C15.1849 0.952 15.8529 1.108 16.3169 1.42C16.7889 1.732 17.0249 2.168 17.0249 2.728C17.0249 3.28 16.7929 3.804 16.3289 4.3C15.8729 4.788 15.2529 5.124 14.4689 5.308C15.7089 7.724 16.8689 9.604 17.9489 10.948L17.5889 11.356C16.0049 9.636 14.5849 7.652 13.3289 5.404L13.7249 4.984H14.1929C14.8009 4.984 15.2729 4.824 15.6089 4.504C15.9529 4.176 16.1249 3.776 16.1249 3.304C16.1249 2.832 15.9289 2.42 15.5369 2.068C15.1529 1.716 14.6089 1.54 13.9049 1.54H13.6769C13.5889 1.724 13.5209 1.944 13.4729 2.2C13.4329 2.448 13.3569 2.944 13.2449 3.688C13.0529 4.904 12.8249 6.264 12.5609 7.768C12.4809 8.232 12.1769 8.716 11.6489 9.22L11.6969 9.316H12.4289C13.0049 9.316 13.5129 9.168 13.9529 8.872L14.0009 8.968C13.7369 9.184 13.5569 9.336 13.4609 9.424C13.3649 9.504 13.2729 9.58 13.1849 9.652C13.0969 9.724 13.0289 9.776 12.9809 9.808C12.9329 9.84 12.8809 9.872 12.8249 9.904C12.7209 9.976 12.6449 10.012 12.5969 10.012C11.6209 10.012 10.8689 10.008 10.3409 10L10.2929 9.904C10.9889 9.76 11.4489 9.084 11.6729 7.876C11.8889 6.692 12.0809 5.572 12.2489 4.516C12.4169 3.46 12.5489 2.752 12.6449 2.392C12.7489 2.024 12.8689 1.752 13.0049 1.576C12.1089 1.576 11.3689 1.876 10.7849 2.476C10.2089 3.068 9.92089 3.96 9.92089 5.152L9.14089 5.824C9.14089 4.432 9.55689 3.284 10.3889 2.38Z" fill="white"/>
</svg>
